IKResults
version=1
nRows=5
nColumns=40
inDegrees=yes

Units are S.I. units (second, meters, Newtons, ...)
If the header above contains a line with 'inDegrees', this indicates whether rotational values are in degrees (yes) or radians (no).

endheader
time	pelvis_tilt	pelvis_list	pelvis_rotation	pelvis_tx	pelvis_ty	pelvis_tz	hip_flexion_r	hip_adduction_r	hip_rotation_r	knee_angle_r	knee_angle_r_beta	ankle_angle_r	subtalar_angle_r	mtp_angle_r	hip_flexion_l	hip_adduction_l	hip_rotation_l	knee_angle_l	knee_angle_l_beta	ankle_angle_l	subtalar_angle_l	mtp_angle_l	lumbar_extension	lumbar_bending	lumbar_rotation	arm_flex_r	arm_add_r	arm_rot_r	elbow_flex_r	pro_sup_r	wrist_flex_r	wrist_dev_r	arm_flex_l	arm_add_l	arm_rot_l	elbow_flex_l	pro_sup_l	wrist_flex_l	wrist_dev_l
      2.90500000	    -21.40983176	      0.95770248	     -0.34059047	     -0.29736863	      0.80046694	     -0.90087805	     49.10393092	    -12.25724114	     -5.82032183	     46.60308353	      0.81337725	     20.94575477	      0.00000000	      0.00000000	     49.13006928	    -10.75181457	     -0.83170616	     44.26749634	      0.77261356	     21.53035772	      0.00000000	      0.00000000	     -3.54696732	     -0.44119131	     -1.45203086	    -16.90130893	    -44.78770482	     35.72348628	     88.51989296	     46.70531408	      0.00000000	      0.00000000	    -26.52818529	    -43.92865747	     25.40043841	     92.84928572	      6.84409935	      0.00000000	      0.00000000
      2.91000000	    -21.50138738	      0.95890945	     -0.34217261	     -0.29760162	      0.79949231	     -0.90088838	     49.39273481	    -12.30055288	     -5.82600647	     46.91716773	      0.81885905	     21.12340832	      0.00000000	      0.00000000	     49.40159452	    -10.77738666	     -0.82520845	     44.56396771	      0.77778796	     21.67449866	      0.00000000	      0.00000000	     -3.64557910	     -0.43987818	     -1.51287373	    -16.71613931	    -44.83366299	     35.86852177	     88.38694103	     46.81680773	      0.00000000	      0.00000000	    -26.72048069	    -43.87866946	     25.15533193	     93.00982689	      6.78349200	      0.00000000	      0.00000000
      2.91500000	    -21.53479748	      0.93855280	     -0.30593283	     -0.29777448	      0.79860693	     -0.90093724	     49.57171316	    -12.33274440	     -5.83129372	     47.18463520	      0.82352724	     21.26217680	      0.00000000	      0.00000000	     49.64073597	    -10.80323113	     -0.79628891	     44.90160526	      0.78368085	     21.79459278	      0.00000000	      0.00000000	     -3.72799623	     -0.39989415	     -1.50454946	    -16.47806625	    -45.08452585	     36.29766027	     88.46056217	     46.93410223	      0.00000000	      0.00000000	    -26.45966573	    -44.05751848	     25.55961634	     92.97917885	      6.92123609	      0.00000000	      0.00000000
      2.92000000	    -21.63581972	      0.92565610	     -0.27363310	     -0.29810581	      0.79759949	     -0.90092950	     49.86397867	    -12.37551551	     -5.84257498	     47.50892028	      0.82918708	     21.32010957	      0.00000000	      0.00000000	     49.95318661	    -10.82028328	     -0.74173465	     45.19749560	      0.78884511	     21.86699137	      0.00000000	      0.00000000	     -3.81911781	     -0.38972102	     -1.47745439	    -16.80674442	    -45.01364075	     35.80968329	     88.60759739	     46.98547390	      0.00000000	      0.00000000	    -26.65582145	    -44.00544408	     25.19876179	     93.19346441	      6.90471341	      0.00000000	      0.00000000
      2.92500000	    -21.77264650	      1.00109664	     -0.31599141	     -0.29844376	      0.79642622	     -0.90084409	     50.25653073	    -12.42452490	     -5.68274175	     47.83017447	      0.83479403	     21.50165207	      0.00000000	      0.00000000	     50.27285870	    -10.81305133	     -0.78669687	     45.50433424	      0.79420046	     21.98123491	      0.00000000	      0.00000000	     -3.81548852	     -0.47347302	     -1.40110522	    -16.66337606	    -45.14272732	     36.10891540	     88.64677451	     47.04175443	      0.00000000	      0.00000000	    -26.53813296	    -44.16244535	     25.43347657	     93.21028127	      6.87422714	      0.00000000	      0.00000000
